<svg xmlns="http://www.w3.org/2000/svg" viewBox="0 0 24 24" fill="none" stroke-width="1.2" stroke-linecap="round"
    stroke-linejoin="round" role="img" aria-label="brain">
    <style>
        path,
        circle,
        rect,
        line,
        polyline,
        polygon {
            stroke: #000000;
        }

        @media (prefers-color-scheme: dark) {

            path,
            circle,
            rect,
            line,
            polyline,
            polygon {
                stroke: #FFFFFF;
            }
        }
    </style>

    <g>
        <!-- Outer silhouette -->
        <path d="M9 4.2c-2.2 0-4 1.7-4 4v1.1c-1 .6-1.7 1.7-1.7 3 0 1.6 1 2.9 2.4 3.3v.9c0 2.2 1.8 4 4 4h2.3" />
        <path d="M15 4.2c2.2 0 4 1.7 4 4v1.1c1 .6 1.7 1.7 1.7 3 0 1.6-1 2.9-2.4 3.3v.9c0 2.2-1.8 4-4 4H12" />

        ```
        <!-- Midline split (subtle) -->
        <path d="M12 5.1v15.1" />

        <!-- Left hemisphere folds -->
        <path d="M8.8 7c-1.2.1-2.2 1.1-2.2 2.4" />
        <path d="M9.3 10.1c-1.4 0-2.6 1.1-2.6 2.6" />
        <path d="M9.6 13.4c-1.2.2-2.1 1.2-2.1 2.5" />
        <path d="M10.3 16.4c-1.1 0-2 .7-2.4 1.7" />

        <!-- Right hemisphere folds -->
        <path d="M15.2 7c1.2.1 2.2 1.1 2.2 2.4" />
        <path d="M14.7 10.1c1.4 0 2.6 1.1 2.6 2.6" />
        <path d="M14.4 13.4c1.2.2 2.1 1.2 2.1 2.5" />
        <path d="M13.7 16.4c1.1 0 2 .7 2.4 1.7" />
        ```

    </g>
</svg>